Coordinates
version=1
nRows=32
nColumns=12
inDegrees=yes

Units are S.I. units (second, meters, Newtons, ...)
Angles are in degrees

endheader
time	SC_y	SC_z	SC_x	AC_y	AC_z	AC_x	GH_y	GH_z	GH_yy	EL_x	PS_y
       0.0              -26.53          28.56          66.02          62.69         -10.16         -14.37          150.3          27.75          87.22          5.935          148.5
   0.03285              -26.53          28.55          66.01          62.69         -10.16         -14.37          150.2          27.75          87.19          5.949          148.5
   0.06571              -26.54          28.55           66.0          62.68         -10.16         -14.36          150.2          27.75          87.16          5.965          148.5
   0.09856              -26.54          28.55           66.0          62.68         -10.16         -14.36          150.1          27.75          87.13          5.981          148.4
    0.1314              -26.54          28.54          65.99          62.68         -10.17         -14.36          150.1          27.76           87.1          5.999          148.4
    0.1643              -26.55          28.54          65.98          62.67         -10.17         -14.36          150.0          27.76          87.06          6.018          148.4
    0.1971              -26.55          28.54          65.98          62.67         -10.17         -14.36          150.0          27.76          87.02          6.038          148.4
      0.23              -26.55          28.54          65.97          62.67         -10.17         -14.35          149.9          27.77          86.98          6.059          148.4
    0.2628              -26.56          28.53          65.96          62.66         -10.17         -14.35          149.8          27.77          86.94          6.082          148.4
    0.2957              -26.56          28.53          65.95          62.66         -10.18         -14.35          149.8          27.77          86.89          6.107          148.4
    0.3285              -26.57          28.52          65.94          62.65         -10.18         -14.35          149.7          27.78          86.84          6.133          148.4
    0.3614              -26.57          28.52          65.93          62.65         -10.18         -14.34          149.6          27.78          86.79          6.162          148.3
    0.3943              -26.58          28.51          65.92          62.64         -10.18         -14.34          149.5          27.79          86.73          6.193          148.3
    0.4271              -26.58          28.51           65.9          62.64         -10.19         -14.34          149.4          27.79          86.67          6.226          148.3
      0.46              -26.59           28.5          65.89          62.63         -10.19         -14.33          149.3           27.8           86.6          6.262          148.3
    0.4928               -26.6           28.5          65.87          62.62         -10.19         -14.33          149.2           27.8          86.53          6.301          148.2
    0.5257              -26.61          28.49          65.86          62.61          -10.2         -14.32          149.0          27.81          86.45          6.343          148.2
    0.5585              -26.62          28.48          65.84          62.61          -10.2         -14.32          148.9          27.81          86.36          6.389          148.2
    0.5914              -26.62          28.47          65.82           62.6         -10.21         -14.31          148.7          27.82          86.26          6.439          148.2
    0.6242              -26.64          28.46           65.8          62.59         -10.21         -14.31          148.6          27.83          86.16          6.494          148.1
    0.6571              -26.65          28.45          65.78          62.58         -10.22          -14.3          148.4          27.84          86.04          6.555          148.1
    0.6899              -26.66          28.44          65.75          62.56         -10.22         -14.29          148.2          27.85          85.92          6.622          148.0
    0.7228              -26.67          28.43          65.72          62.55         -10.23         -14.29          147.9          27.86          85.78          6.695          148.0
    0.7557              -26.69          28.42          65.69          62.54         -10.24         -14.28          147.7          27.87          85.63          6.777          147.9
    0.7885              -26.71           28.4          65.66          62.52         -10.24         -14.27          147.4          27.89          85.45          6.867          147.9
    0.8214              -26.72          28.39          65.62           62.5         -10.25         -14.26          147.1           27.9          85.26          6.968          147.8
    0.8542              -26.75          28.37          65.58          62.48         -10.26         -14.24          146.8          27.92          85.05          7.082          147.7
    0.8871              -26.77          28.35          65.53          62.46         -10.28         -14.23          146.4          27.94          84.81          7.209          147.7
    0.9199               -26.8          28.33          65.47          62.43         -10.29         -14.22          145.9          27.96          84.54          7.353          147.6
    0.9528              -26.83           28.3          65.41           62.4          -10.3          -14.2          145.4          27.99          84.23          7.516          147.5
    0.9856              -26.86          28.27          65.34          62.37         -10.32         -14.18          144.9          28.01          83.87          7.703          147.3
     1.018               -26.9          28.23          65.26          62.33         -10.34         -14.16          144.2          28.05          83.47          7.917          147.2
